<svg width="31" height="31" viewBox="0 0 31 31" fill="none" xmlns="http://www.w3.org/2000/svg">
<path d="M15.5618 0.0996094C7.0354 0.0996094 0.123779 7.01123 0.123779 15.5377C0.123779 24.0641 7.0354 30.9757 15.5618 30.9757C24.0883 30.9757 30.9999 24.0641 30.9999 15.5377C30.9999 7.01123 24.0883 0.0996094 15.5618 0.0996094ZM15.5618 2.33658C18.925 2.33658 21.9949 3.59478 24.326 5.66503C22.6132 7.92439 20.0111 9.42883 17.4036 10.447C15.9275 7.75869 14.2732 5.17219 12.4518 2.70478C13.4705 2.45924 14.5148 2.33564 15.5626 2.33658H15.5618ZM9.94547 3.58707C11.6668 6.16213 13.3341 8.54963 14.8571 11.2521C11.0053 12.2501 6.65253 12.8491 2.63169 12.8592C3.47924 8.74646 6.24188 5.33157 9.94547 3.58784V3.58707ZM25.7903 7.19185C27.6979 9.52296 28.7473 12.4384 28.7629 15.4504C25.7093 14.8484 22.6726 14.6909 19.5804 15.0027C19.233 14.1359 18.8115 13.3123 18.4078 12.4246C21.0732 11.3493 23.9231 9.5091 25.7903 7.19108V7.19185ZM15.9293 13.2945C16.2596 13.9969 16.6425 14.7426 17.0022 15.5045C12.7027 17.4003 8.12918 19.9336 5.75558 24.3752C3.47693 21.8536 2.26257 18.548 2.36693 15.1509C6.97133 15.1293 11.4908 14.5535 15.9293 13.2945ZM22.9057 16.8939C24.8268 16.8943 26.74 17.1407 28.5985 17.6272C28.3119 19.4151 27.6606 21.1249 26.6849 22.6504C25.7093 24.1758 24.4303 25.4841 22.9273 26.494C22.2187 23.2714 21.5433 20.1876 20.3492 17.0784C21.1955 16.9551 22.0497 16.8931 22.9049 16.8931L22.9057 16.8939ZM28.6672 17.1332C28.6579 17.2088 28.6494 17.2829 28.6386 17.357C28.6494 17.2822 28.6587 17.2081 28.6672 17.1332ZM17.9069 17.6812C19.1234 20.8252 20.0782 24.3065 20.7189 27.6944C19.088 28.3863 17.3342 28.7418 15.5626 28.7395C12.6277 28.7437 9.77586 27.7655 7.46149 25.9607C9.85207 22.0826 13.5549 19.1479 17.9061 17.682L17.9069 17.6812Z" fill="#FBFBFB"/>
</svg>
